<svg xmlns="http://www.w3.org/2000/svg" viewBox="0 0 96 96">
  <defs>
    <linearGradient id="g" x1="20" y1="12" x2="76" y2="86" gradientUnits="userSpaceOnUse">
      <stop stop-color="#fff27b"/>
      <stop offset="1" stop-color="#d99b25"/>
    </linearGradient>
  </defs>
  <circle cx="48" cy="48" r="44" fill="#fff7d6"/>
  <path d="M48 84V22" stroke="#7c5f1c" stroke-width="5" stroke-linecap="round"/>
  <path d="M48 30c18 2 24 9 24 20-15-1-24-8-24-20ZM48 42c-18 2-24 9-24 20 15-1 24-8 24-20ZM48 54c17 2 22 8 22 18-14-1-22-7-22-18ZM48 22c-14 2-20 8-21 18 13-1 20-7 21-18Z" fill="url(#g)" stroke="#9b7620" stroke-width="3" stroke-linejoin="round"/>
</svg>
