<svg xmlns="http://www.w3.org/2000/svg" viewBox="0 0 96 96">
  <defs>
    <linearGradient id="g" x1="22" y1="10" x2="74" y2="86" gradientUnits="userSpaceOnUse">
      <stop stop-color="#eee0ff"/>
      <stop offset=".62" stop-color="#a987ff"/>
      <stop offset="1" stop-color="#6e55c8"/>
    </linearGradient>
  </defs>
  <circle cx="48" cy="48" r="44" fill="#f3edff"/>
  <path d="M27 16c14 8 28 8 42 0" fill="none" stroke="#4d3a8f" stroke-width="5" stroke-linecap="round"/>
  <path d="M30 22v24M43 20v42M56 20v42M69 22v24" stroke="#4d3a8f" stroke-width="4" stroke-linecap="round"/>
  <path d="M30 43c-8 7-8 17 0 24 8-7 8-17 0-24ZM43 52c-9 8-9 18 0 26 9-8 9-18 0-26ZM56 51c-9 8-9 18 0 26 9-8 9-18 0-26ZM69 43c-8 7-8 17 0 24 8-7 8-17 0-24Z" fill="url(#g)" stroke="#6e55c8" stroke-width="3"/>
</svg>
