<svg xmlns="http://www.w3.org/2000/svg" width="220" height="90" viewBox="0 0 220 90">
  <g stroke="#1b1714" stroke-width="3" stroke-linejoin="round">
    <path d="M18 56 L52 22 H168 L202 56 L168 70 H52 Z" fill="#211c18" opacity="0.32"/>
    <path d="M20 50 L52 18 H168 L200 50 L168 66 H52 Z" fill="#3d352f"/>
    <path d="M28 48 L56 24 H164 L192 48 L164 60 H56 Z" fill="#6f655a"/>
    <path d="M44 47 L66 29 H154 L176 47 L154 56 H66 Z" fill="#8dcf58"/>
    <path d="M44 47 L66 29 H154 L176 47" fill="none" stroke="#ddffd0" stroke-width="4" opacity="0.9"/>
    <path d="M40 18 h18 l8 13 h-18z" fill="#b9ad9a"/>
    <path d="M154 18 h18 l8 13 h-18z" fill="#b9ad9a"/>
    <path d="M36 16 h26 v10 h-26z" fill="#6f655a"/>
    <path d="M158 16 h26 v10 h-26z" fill="#6f655a"/>
    <path d="M36 26 h26 v30 h-26z" fill="#b9ad9a"/>
    <path d="M158 26 h26 v30 h-26z" fill="#b9ad9a"/>
    <path d="M48 31 h8 v14 h-8z" fill="#8dcf58"/>
    <path d="M170 31 h8 v14 h-8z" fill="#8dcf58"/>
  </g>
</svg>