<svg xmlns="http://www.w3.org/2000/svg" viewBox="0 0 900 1200" role="img" aria-label="World Conquest board game artwork">
  <defs>
    <linearGradient id="sky" x1="0" y1="0" x2="1" y2="1">
      <stop offset="0" stop-color="#102932"/>
      <stop offset="0.46" stop-color="#271b22"/>
      <stop offset="1" stop-color="#071016"/>
    </linearGradient>
    <radialGradient id="sun" cx="34%" cy="20%" r="62%">
      <stop offset="0" stop-color="#f0c76e" stop-opacity=".52"/>
      <stop offset=".35" stop-color="#c5524e" stop-opacity=".28"/>
      <stop offset="1" stop-color="#071016" stop-opacity="0"/>
    </radialGradient>
    <filter id="softShadow" x="-20%" y="-20%" width="140%" height="140%">
      <feDropShadow dx="0" dy="20" stdDeviation="18" flood-color="#000" flood-opacity=".42"/>
    </filter>
  </defs>

  <rect width="900" height="1200" fill="url(#sky)"/>
  <rect width="900" height="1200" fill="url(#sun)"/>

  <g opacity=".24" stroke="#f4d28a" stroke-width="2">
    <path d="M76 206C222 134 333 134 472 202s251 70 356-6" fill="none"/>
    <path d="M55 318c142-77 279-82 411-14s265 74 392-6" fill="none"/>
    <path d="M45 441c158-68 297-61 418 20s264 88 392-9" fill="none"/>
  </g>

  <g filter="url(#softShadow)">
    <path d="M132 296l120-104 126 22 44 80-72 88-136 4z" fill="#2d6d68" stroke="#f6d79b" stroke-width="9"/>
    <path d="M439 174l98-50 134 34 92 86-51 116-155 10-111-74z" fill="#476b4a" stroke="#f6d79b" stroke-width="9"/>
    <path d="M216 464l176-26 85 92-38 146-190 38-106-92z" fill="#9c5b39" stroke="#f6d79b" stroke-width="9"/>
    <path d="M502 482l203-44 109 103-40 191-210 30-107-121z" fill="#7d343e" stroke="#f6d79b" stroke-width="9"/>
    <path d="M326 765l188-31 152 96-88 164-211 10-118-108z" fill="#78613d" stroke="#f6d79b" stroke-width="9"/>
  </g>

  <g fill="none" stroke-linecap="round" stroke-dasharray="22 18">
    <path d="M375 302c61-36 104-41 156-12" stroke="#ff8b5c" stroke-width="10"/>
    <path d="M433 557c58-48 87-59 132-54" stroke="#ff8b5c" stroke-width="10"/>
    <path d="M476 738c26 42 54 64 99 82" stroke="#ff8b5c" stroke-width="10"/>
    <path d="M266 708c32 36 55 56 85 74" stroke="#ff8b5c" stroke-width="10"/>
  </g>

  <g>
    <circle cx="263" cy="310" r="48" fill="#111820" stroke="#52b8e8" stroke-width="10"/>
    <text x="263" y="326" text-anchor="middle" font-family="Trebuchet MS, Arial, sans-serif" font-weight="900" font-size="44" fill="#fff">7</text>
    <circle cx="586" cy="271" r="48" fill="#111820" stroke="#d64e5e" stroke-width="10"/>
    <text x="586" y="287" text-anchor="middle" font-family="Trebuchet MS, Arial, sans-serif" font-weight="900" font-size="44" fill="#fff">4</text>
    <circle cx="326" cy="576" r="48" fill="#111820" stroke="#44ad68" stroke-width="10"/>
    <text x="326" y="592" text-anchor="middle" font-family="Trebuchet MS, Arial, sans-serif" font-weight="900" font-size="44" fill="#fff">9</text>
    <circle cx="636" cy="611" r="48" fill="#111820" stroke="#d59b38" stroke-width="10"/>
    <text x="636" y="627" text-anchor="middle" font-family="Trebuchet MS, Arial, sans-serif" font-weight="900" font-size="44" fill="#fff">5</text>
  </g>

  <g transform="translate(112 884) rotate(-10)">
    <rect width="104" height="104" rx="18" fill="#f7f0da" stroke="#111820" stroke-width="7"/>
    <circle cx="30" cy="30" r="8" fill="#17272c"/>
    <circle cx="74" cy="30" r="8" fill="#17272c"/>
    <circle cx="52" cy="52" r="8" fill="#17272c"/>
    <circle cx="30" cy="74" r="8" fill="#17272c"/>
    <circle cx="74" cy="74" r="8" fill="#17272c"/>
  </g>
  <g transform="translate(224 918) rotate(8)">
    <rect width="104" height="104" rx="18" fill="#ffb0b7" stroke="#111820" stroke-width="7"/>
    <circle cx="30" cy="30" r="8" fill="#17272c"/>
    <circle cx="74" cy="30" r="8" fill="#17272c"/>
    <circle cx="30" cy="74" r="8" fill="#17272c"/>
    <circle cx="74" cy="74" r="8" fill="#17272c"/>
  </g>

  <path d="M0 830c168 80 308 110 453 78 155-34 257-4 447 92v200H0z" fill="#03070a" opacity=".62"/>
</svg>
